<svg width="233" height="305" viewBox="0 0 233 305" fill="none" xmlns="http://www.w3.org/2000/svg">
<path d="M109.812 300.404C109.429 300.405 109.06 300.256 108.784 299.989C108.509 299.722 108.348 299.359 108.335 298.976L114.911 206.982H124.054L111.289 298.976C111.277 299.359 111.116 299.722 110.84 299.989C110.564 300.256 110.196 300.405 109.812 300.404Z" fill="white" stroke="#007EA7" stroke-width="5" stroke-miterlimit="10" stroke-linecap="round"/>
<path d="M166.626 300.404C166.242 300.405 165.873 300.256 165.598 299.989C165.322 299.722 165.161 299.359 165.148 298.976L152.384 206.982H161.527L168.103 298.976C168.09 299.359 167.929 299.722 167.653 299.989C167.378 300.256 167.009 300.405 166.626 300.404Z" fill="white" stroke="#007EA7" stroke-width="5" stroke-miterlimit="10" stroke-linecap="round"/>
<path d="M192.977 300.404C192.594 300.405 192.225 300.256 191.949 299.989C191.674 299.722 191.513 299.359 191.5 298.976L178.735 206.982H187.878L194.454 298.976C194.442 299.359 194.281 299.722 194.005 299.989C193.729 300.256 193.361 300.405 192.977 300.404Z" fill="white" stroke="#007EA7" stroke-width="5" stroke-miterlimit="10" stroke-linecap="round"/>
<path d="M196.357 187.256L193.717 197.846H185.038L187.678 187.256H196.357Z" fill="white" stroke="#007EA7" stroke-width="5" stroke-miterlimit="10" stroke-linecap="round"/>
<path d="M162.479 187.256L159.839 197.846H151.16L153.8 187.256H162.479Z" fill="white" stroke="#007EA7" stroke-width="5" stroke-miterlimit="10" stroke-linecap="round"/>
<path d="M194.892 197.118H104.172C101.181 197.118 98.7566 199.542 98.7566 202.532C98.7566 205.522 101.181 207.946 104.172 207.946H194.892C197.883 207.946 200.307 205.522 200.307 202.532C200.307 199.542 197.883 197.118 194.892 197.118Z" fill="#2A2D34"/>
<path d="M232.215 112.853L215.763 178.853C215.113 181.459 213.61 183.772 211.494 185.425C209.378 187.079 206.769 187.977 204.084 187.977H144.128C140.808 187.977 138.499 182.96 139.643 178.229L156.032 110.454C156.81 107.234 158.829 105.097 161.089 105.097H226.229C228.874 105.097 233.117 109.098 232.215 112.853Z" fill="#2A2D34"/>
<path d="M42.9997 284.48C42.9997 286.153 48.1758 291.276 46.4327 299.839C46.4327 299.839 33.663 299.858 27.399 299.897C19.9529 299.943 4.11525 299.943 4.11525 299.943C4.11525 299.943 2.57767 293.118 10.7346 292.172C18.8915 291.227 29.2316 282.606 29.2316 282.606L42.9997 284.48Z" fill="#2A2D34"/>
<path d="M46.9815 300.622C39.5353 300.668 4.11523 300.668 4.11523 300.668" stroke="#007EA7" stroke-width="7" stroke-miterlimit="10" stroke-linecap="round"/>
<path d="M29.4732 282.606C30.2807 280.355 31.4436 273.003 31.4436 273.003L44.5638 274.154C44.5638 274.154 42.388 279.069 42.7579 284.238C42.8836 285.981 28.586 285.074 29.4732 282.606Z" fill="#FFC0B7"/>
<path d="M161.882 190.871C147.294 196.833 78.9081 193.068 78.9081 193.068C78.9081 193.068 77.5084 246.644 51.7925 274.379C51.7925 274.379 34.0546 273.784 29.1929 272.53C29.1929 272.53 42.6347 192.348 52.2446 176.597C57.3215 168.259 114.483 155.535 126.808 154.464C130.479 156.91 134.375 158.998 138.444 160.702C149.647 165.428 161.138 167.12 169.778 167.621C171.105 175.367 171.316 187.017 161.882 190.871Z" fill="#007EA7"/>
<path d="M52.9118 284.48C52.9118 286.153 58.0879 291.276 56.3448 299.839C56.3448 299.839 43.5751 299.858 37.3111 299.897C29.865 299.943 14.0274 299.943 14.0274 299.943C14.0274 299.943 12.4898 293.118 20.6467 292.172C28.8037 291.227 39.1437 282.606 39.1437 282.606L52.9118 284.48Z" fill="#2A2D34"/>
<path d="M56.8936 300.622C49.4474 300.668 14.0273 300.668 14.0273 300.668" stroke="#007EA7" stroke-width="7" stroke-miterlimit="10" stroke-linecap="round"/>
<path d="M39.3854 282.606C40.1929 280.355 41.3557 273.003 41.3557 273.003L56.41 274.638C56.41 274.638 53.6782 277.142 52.67 284.238C52.4234 285.967 38.4981 285.074 39.3854 282.606Z" fill="#FFCFC9"/>
<path d="M172.44 197.173C157.852 203.142 89.4657 199.371 89.4657 199.371C89.4657 199.371 90.8776 246.03 58.5738 274.722C58.5738 274.722 42.4098 273.559 37.5408 272.305C37.5408 272.305 58.245 196.547 62.7949 182.9C65.285 175.43 128.795 161.026 138.436 160.702C154.342 167.413 170.808 167.991 178.916 167.773C180.365 172.681 185.135 191.988 172.44 197.173Z" fill="#007EA7"/>
<path d="M130.736 134.241C114.19 137.541 74.4404 136.127 57.776 132.778C56.8721 133.477 55.9223 134.115 54.9329 134.686C52.7571 135.936 48.5674 136.946 47.5738 136.891C46.5802 136.835 40.483 135.9 40.483 135.9C40.483 135.9 40.2654 135.211 41.1575 134.302C42.0496 133.393 48.5892 134.115 46.1982 132.126C45.1344 131.236 39.8375 133.238 37.5335 135.457C35.2296 137.677 34.1489 135.919 34.1489 135.919C34.1489 135.919 36.3538 131.809 37.1443 131.064C37.9349 130.32 43.1883 127.162 46.747 126.681C49.3241 126.333 55.5228 126.812 58.8035 127.602C70.9615 124.716 94.2888 121.036 110.898 121.169C113.105 111.982 115.786 100.736 116.499 97.4092L128.307 105.145L130.736 134.241Z" fill="#FFC0B7"/>
<path d="M116.499 97.4092L115.755 100.709C115.755 100.709 118.813 108.458 128.684 111.015L128.307 105.141L116.499 97.4092Z" fill="#FAB6AD"/>
<path d="M188.413 118.058C188.413 118.058 187.53 118.002 186.044 117.85C184.351 130.346 182.862 140.844 182.862 143.148C182.862 149.339 184.071 167.471 184.071 167.471C184.071 167.471 151.467 171.129 126.6 154.322C126.6 154.322 132.363 146.564 129.373 122.117C127.386 105.854 128.307 105.141 128.307 105.141C128.307 105.141 122.214 101.964 113.574 95.1197C113.574 95.1197 118.059 72.9505 125.212 68.6012C132.366 64.252 143.467 62.2236 150.839 59.4482C158.21 56.6728 169.415 53.7911 169.415 53.7911C172.406 56.2449 186.604 63.1858 190.127 67.3489C195.146 71.9496 202.026 90.1951 188.413 118.058Z" fill="#5B8C5A"/>
<path d="M159.748 110.766C159.748 110.766 162.796 105.76 166.473 87.5068" stroke="#5B8C5A" stroke-width="5" stroke-miterlimit="10"/>
<path d="M128.036 104.679C127.688 100.264 128.157 92.0035 128.728 87.4125" stroke="#5B8C5A" stroke-width="5" stroke-miterlimit="10"/>
<path d="M186.039 117.85C186.039 117.85 173.117 150.507 167.266 151.048C148.211 152.811 116.366 134.664 109.486 134.451L106.469 134.355C104.776 135.348 102.625 136.195 100.804 135.66C97.1343 134.587 94.1945 131.935 91.7624 133.073C89.3304 134.212 86.5235 136.398 84.9811 136.216C81.7536 135.827 79.8921 134.113 79.8921 134.113C79.8921 134.113 81.9011 131.923 83.9295 129.841C82.491 130.404 80.3031 131.952 79.1837 132.484C77.4914 133.284 76.6211 131.853 76.6211 131.853C76.6211 131.853 80.3949 128.519 81.698 127.728C82.9576 126.967 86.4921 126.166 88.2763 126.128C90.4352 125.838 102.277 124.22 108.379 124.863C115.375 124.605 129.412 125.105 154.139 129.754L161.225 111.579C161.225 111.579 171.985 116.363 186.039 117.85Z" fill="#FFCFC9"/>
<path d="M186.039 117.852C186.039 117.852 184.871 120.804 183.077 124.948C177.2 123.212 167.672 119.525 160.835 112.575L161.225 111.574C161.225 111.574 171.988 116.363 186.039 117.852Z" fill="#FAB6AD"/>
<path d="M156.491 32.011C156.491 32.011 157.458 45.7913 169.408 53.7911C169.408 53.7911 163.11 67.5714 148.59 68.5239C134.07 69.4764 145.02 61.3219 145.02 61.3219C145.02 61.3219 141.231 48.7867 140.588 45.7986L156.491 32.011Z" fill="#FFCFC9"/>
<path d="M156.448 39.1671C155.722 45.4697 150.162 54.5043 143.264 55.4302C142.181 51.7434 140.934 47.399 140.591 45.7985L155.688 32.7025L156.157 33.6356C156.157 33.6356 156.602 37.8374 156.448 39.1671Z" fill="#FAB6AD"/>
<path d="M155.355 32.9974C155.355 32.9974 155.58 37.3177 154.999 38.524C152.328 44.0845 143.951 50.4669 137.438 50.4669C132.397 50.4669 126.491 35.108 125.959 29.4484C125.428 23.7888 126.172 14.822 139.836 13.7559C153.501 12.6897 154.463 26.8858 154.463 26.8858L155.355 32.9974Z" fill="#FFCFC9"/>
<path d="M115.496 23.6849C115.496 23.6849 112.955 18.6369 117.203 14.9308C122.215 10.5525 126.808 12.5809 129.375 9.80549C131.943 7.0301 137.308 1.10218 145.283 2.11515C152.434 3.02416 154.521 7.98989 154.521 7.98989C154.521 7.98989 158.945 6.12593 162.786 11.1327C166.628 16.1396 157.349 37.0009 157.349 37.0009C157.349 37.0009 154.852 28.6893 154.463 26.9003C153.59 22.8943 145.709 23.8396 146.349 16.009C146.349 16.009 144.215 21.3471 136.101 21.2455C133.684 21.2165 130.56 20.5541 127.458 20.0947C125.742 23.1337 125.696 26.6948 125.959 29.4605C125.959 29.4484 118.704 29.3372 115.496 23.6849Z" fill="#2A2D34"/>
<path d="M154.301 7.98984C154.301 7.98984 157.884 4.58346 161.687 7.83995" stroke="#2A2D34" stroke-width="3" stroke-miterlimit="10"/>
<path d="M146.349 15.5569C146.349 15.5569 144.863 22.7444 136.761 23.2134" stroke="#2A2D34" stroke-width="3" stroke-miterlimit="10"/>
<path d="M156.61 24.6132L154.032 5.15405C153.947 4.50634 153.618 3.91571 153.111 3.50312C152.605 3.09052 151.959 2.88717 151.308 2.93471" stroke="#007EA7" stroke-width="5" stroke-miterlimit="10" stroke-linecap="round"/>
<path d="M158.754 38.7271C159.445 42.1311 165.465 51.4412 154.999 69.2081C144.534 86.9749 158.142 92.267 151.259 104.437C144.377 116.607 129.455 115.94 130.226 136.306C130.734 149.706 118.719 151.52 119.412 136.306" stroke="#007EA7" stroke-width="5" stroke-miterlimit="10" stroke-linecap="round"/>
<path d="M136.824 118.06C140.417 115.128 144.05 98.5213 138.287 89.0733C132.523 79.6254 126.89 66.8895 135.386 50.8464" stroke="#007EA7" stroke-width="5" stroke-miterlimit="10" stroke-linecap="round"/>
<path d="M158.916 24.2735L153.834 25.0412C152.288 25.2747 151.224 26.7173 151.458 28.2633L152.744 36.7805C152.978 38.3265 154.42 39.3904 155.966 39.1569L161.048 38.3892C162.594 38.1557 163.658 36.7131 163.425 35.1671L162.138 26.6499C161.905 25.1039 160.462 24.04 158.916 24.2735Z" fill="white" stroke="#788AA3" stroke-width="6" stroke-miterlimit="10"/>
<path d="M8.3219 141.168H138.412C139.795 141.168 140.917 142.773 140.917 144.755V145.084C140.917 147.064 139.795 148.669 138.412 148.669H40.4758" fill="white"/>
<path d="M9.77234 140.684H138.412C139.795 140.684 140.917 142.289 140.917 144.272V144.601C140.917 146.581 139.795 148.186 138.412 148.186H40.9592" stroke="#007EA7" stroke-width="5" stroke-miterlimit="10" stroke-linecap="round"/>
<path d="M132.298 302L107.651 148.428H116.137L140.542 301.758L132.298 302Z" fill="white"/>
<path d="M117.57 156.227L108.417 152.811L107.648 148.428H116.139L117.57 156.227Z" fill="#5B8C5A"/>
<path d="M131.815 301.033L107.651 148.428H116.137L140.059 300.791" stroke="#007EA7" stroke-width="7" stroke-miterlimit="10" stroke-linecap="round"/>
<path d="M101.206 134.362H27.9938C27.0236 134.363 26.0767 134.065 25.2812 133.51C24.4856 132.955 23.8797 132.169 23.5454 131.258L6.67306 85.2777C6.46207 84.7075 6.39216 84.0947 6.4693 83.4917C6.54643 82.8886 6.76831 82.3131 7.11602 81.8144C7.46372 81.3156 7.92692 80.9084 8.4661 80.6274C9.00527 80.3464 9.60441 80.2001 10.2124 80.2008H84.3912C85.486 80.2018 86.554 80.5393 87.4505 81.1676C88.347 81.796 89.0286 82.6848 89.4029 83.7136L105.654 127.994C105.916 128.71 106.002 129.479 105.903 130.235C105.805 130.991 105.526 131.712 105.089 132.337C104.652 132.962 104.071 133.473 103.395 133.825C102.719 134.178 101.968 134.362 101.206 134.362Z" fill="white" stroke="#2A2D34" stroke-width="5" stroke-miterlimit="10"/>
<path d="M98.0194 134.362H27.2687C26.3192 134.352 25.3961 134.049 24.6263 133.493C23.8566 132.937 23.278 132.156 22.9702 131.258L6.66599 85.2777C5.79324 82.8191 7.55325 80.2008 10.0869 80.2008H81.7708C82.8398 80.2126 83.8788 80.5556 84.7448 81.1826C85.6107 81.8095 86.261 82.6896 86.6059 83.7015L102.32 127.984C103.413 131.098 101.201 134.362 98.0194 134.362Z" fill="#2A2D34" stroke="#2A2D34" stroke-width="5" stroke-miterlimit="10"/>
<path d="M132.45 134.362H27.1186C25.774 134.362 24.6841 135.452 24.6841 136.797V136.922C24.6841 138.267 25.774 139.357 27.1186 139.357H132.45C133.795 139.357 134.885 138.267 134.885 136.922V136.797C134.885 135.452 133.795 134.362 132.45 134.362Z" fill="white" stroke="#2A2D34" stroke-width="5" stroke-miterlimit="10"/>
</svg>
