<svg width="210" height="303" viewBox="0 0 210 303" fill="none" xmlns="http://www.w3.org/2000/svg">
<path d="M109.061 192.432H178.084C180.617 192.432 183.046 193.438 184.838 195.228C186.63 197.018 187.638 199.446 187.64 201.979V202.037H99.5043V201.979C99.5069 199.446 100.515 197.018 102.307 195.228C104.099 193.438 106.528 192.432 109.061 192.432Z" fill="white" stroke="#788AA3" stroke-width="5" stroke-miterlimit="10"/>
<path d="M117.995 202.47L169.15 300" stroke="#788AA3" stroke-width="6" stroke-miterlimit="10" stroke-linecap="round"/>
<path d="M169.15 202.47L117.995 300" stroke="#788AA3" stroke-width="6" stroke-miterlimit="10" stroke-linecap="round"/>
<path d="M3.23955 298.714C3.23955 298.714 18.2751 298.714 25.3448 298.67C31.291 298.632 43.0013 299.854 43.1834 297.008C43.5523 291.282 39.7335 288.101 40.2079 284.488C35.5041 284.627 30.8384 283.606 26.6218 281.517C25.0885 283.014 16.543 291.086 9.52352 291.912C1.78056 292.825 3.23955 298.714 3.23955 298.714Z" fill="#007EA7"/>
<path d="M3 299.193C3 299.193 36.243 299.193 43.3128 299.15" stroke="#788AA3" stroke-width="6" stroke-miterlimit="10" stroke-linecap="round"/>
<path d="M21.7441 288.548C21.7441 288.548 17.451 283.596 15.9153 288.208C14.6983 291.862 16.9982 292.683 17.6354 291.148C17.9996 290.266 14.2814 287.863 12.8703 289.535C12.0798 290.475 12.2067 291.363 12.2067 291.363" stroke="#788AA3" stroke-width="4" stroke-miterlimit="10" stroke-linecap="round"/>
<path d="M45.1646 183.827C50.555 168.125 123.179 159.51 123.179 159.51L146.166 160.128C147.313 163.923 149.381 189.385 132.551 198.671C114.691 208.524 74.2918 195.734 74.2918 195.734C74.2918 195.734 76.6587 244.889 42.1245 285.276L19.5903 282.88C29.2379 244.913 39.9515 198.977 45.1646 183.827Z" fill="#5B8C5A"/>
<path d="M58.8202 298.714C58.8202 298.714 73.8558 298.714 80.9255 298.67C86.8717 298.632 98.582 299.854 98.7641 297.008C99.133 291.282 95.3142 288.101 95.7886 284.488C91.0848 284.627 86.419 283.606 82.2025 281.517C80.6692 283.014 72.1237 291.086 65.1042 291.912C57.3612 292.825 58.8202 298.714 58.8202 298.714Z" fill="#007EA7"/>
<path d="M58.5807 299.193C58.5807 299.193 91.8237 299.193 98.8934 299.15" stroke="#788AA3" stroke-width="6" stroke-miterlimit="10" stroke-linecap="round"/>
<path d="M77.3248 288.549C77.3248 288.549 73.0316 283.597 71.496 288.208C70.279 291.862 72.5788 292.684 73.2161 291.148C73.5803 290.266 69.8621 287.863 68.451 289.536C67.6604 290.475 67.7874 291.363 67.7874 291.363" stroke="#788AA3" stroke-width="4" stroke-miterlimit="10" stroke-linecap="round"/>
<path d="M75.6382 183.681C78.9754 172.919 132.551 159.815 132.551 159.815L178.105 160.842C179.251 164.637 183.642 186.984 166.812 196.27C148.952 206.124 102.71 201.67 102.71 201.67C102.71 201.67 119.758 232.041 98.249 285.281L76.5749 282.885C80.3434 254.656 70.8947 198.98 75.6382 183.681Z" fill="#5B8C5A"/>
<path d="M126.09 152.239C126.09 152.239 118.996 126.993 113.165 99.9215C113.165 99.9215 98.7257 95.0103 90.4054 85.7245C90.4054 85.7245 103.759 62.074 114.037 58.4972C122.884 55.4187 135.629 52.4504 135.629 52.4504L164.321 50.3182C164.321 50.3182 185.314 56.0368 192.786 61.9446C201.471 68.8083 205.79 91.3137 205.79 91.3137C205.79 91.3137 195.714 92.054 180.988 100.81L177.528 152.239C178.522 158.825 180.906 167.648 180.906 167.648C180.906 167.648 151.997 174.445 114.346 160.078C114.346 160.078 127.482 157.325 126.09 152.239Z" fill="#007EA7"/>
<path d="M90.4437 85.897L80.9662 100.238C80.9662 100.238 54.9631 66.0556 52.2056 62.1171L43.6505 64.968C43.6505 64.968 63.9135 127.309 80.3649 127.309C93.4455 127.309 112.868 99.9215 112.868 99.9215C112.868 99.9215 95.6999 91.8599 90.4437 85.897Z" fill="#FFCFC9"/>
<path d="M52.2057 62.1459C52.2057 62.1459 52.1745 53.3919 50.2316 50.4763C48.2887 47.5607 42.8576 37.0603 40.8452 38.1504C39.918 38.6535 43.3104 47.3978 43.3104 47.3978C43.3104 47.3978 41.4393 46.5042 40.0833 47.9632C38.7274 49.4222 38.5693 48.2028 36.7054 49.0173C34.8415 49.8319 35.5698 51.3316 33.3011 51.4945C31.6672 51.6095 31.7894 53.5932 32.8219 55.5672C34.1995 58.2409 41.7196 65.7251 44.0602 64.968C46.4009 64.211 52.2057 62.1459 52.2057 62.1459Z" fill="#FFCFC9"/>
<path d="M33.1501 55.0282C33.4064 55.5792 35.1888 59.628 37.5103 58.7655C39.8317 57.9031 35.5817 51.8395 35.5817 51.8395C35.5817 51.8395 39.0388 58.2241 41.3051 57.2538C43.5715 56.2836 39.3071 50.1793 39.3071 50.1793" stroke="#FAB6AD" stroke-width="3" stroke-miterlimit="10"/>
<path d="M50.0591 51.2478C49.2877 49.9421 48.4228 49.3144 46.1541 49.8534C43.8853 50.3925 40.4044 51.5999 40.4044 51.5999C40.4044 51.5999 40.8428 54.5994 43.6434 54.1202C45.5336 53.7968 45.5336 53.7968 45.5863 54.228C45.639 54.6593 45.8882 57.3616 46.8081 59.0889" stroke="#FAB6AD" stroke-width="3" stroke-miterlimit="10"/>
<path d="M86.7543 108.896H124.767C130.002 108.896 134.939 112.489 135.788 116.895L141.314 145.375C142.17 149.793 147.11 153.375 152.335 153.375H114.334C109.099 153.375 104.164 149.781 103.314 145.375L97.8393 117.195C97.099 113.361 93.3641 110.487 88.9632 109.684L86.8502 109.385L86.7543 108.896Z" fill="white" stroke="#788AA3" stroke-width="5" stroke-miterlimit="10"/>
<path d="M207.522 135.534C201.916 143.428 162.076 150.263 153.341 151.669C152.937 151.809 152.519 151.906 152.095 151.961C150.229 152.201 140.55 152.783 138.624 152.165C136.355 151.434 132.053 147.33 131.82 146.696C131.588 146.061 130.435 140.725 130.435 140.725C130.435 140.725 133.444 140.282 135.097 143.497C136.585 146.396 139.815 146.082 141.806 145.91C142.634 145.838 144.223 144.604 143.962 143.349C143.701 142.093 142.162 142.522 141.35 141.981L140.766 139.092L144.46 139.051C145.363 139.039 150.349 140.999 153.437 143.799C161.922 138.931 181.21 128.119 190.99 124.715L180.976 100.801C180.976 100.801 190.127 92.938 205.651 91.2179C205.678 91.2179 213.272 127.434 207.522 135.534Z" fill="#FFCFC9"/>
<path d="M155.825 29.6407C155.825 29.6407 153.724 44.4511 164.783 50.4835C164.783 50.4835 151.23 60.7468 140.73 61.4032C130.229 62.0596 134.741 53.0397 134.741 53.0397C134.741 53.0397 137.326 47.9392 136.509 35.4144L155.825 29.6407Z" fill="#FFCFC9"/>
<path d="M136.501 35.4169L155.394 29.7678C155.142 30.7117 154.048 43.8163 138.847 47.8315C137.939 48.0711 137.016 47.8003 136.176 47.441C136.588 44.6284 136.846 40.6779 136.501 35.4169Z" fill="#FAB6AD"/>
<path d="M155.703 29.727C155.703 29.727 151.151 40.1053 138.849 41.605C127.879 42.9442 122.486 12.3557 138.684 9.43049C156.484 6.21783 154.366 25.2734 154.366 25.2734C154.366 25.2734 156.978 23.3568 158.199 24.8733C159.421 26.3898 155.703 29.727 155.703 29.727Z" fill="#FFCFC9"/>
<path d="M155.924 28.3471L154.465 25.4578C151.055 24.3247 151.47 19.665 152.706 17.1399C151.899 17.619 150.361 18.0551 147.687 17.8275C146.202 17.7005 149.067 15.1706 147.886 14.9718C146.705 14.7729 144.242 17.4346 140.598 17.7292C136.954 18.0239 140.874 15.2521 141.099 13.7931C141.295 12.5138 138.878 14.198 137.615 14.9909C132.925 17.9688 128.962 17.2477 128.629 21.6989C128.629 21.6989 124.868 15.8438 124.868 13.0744C124.868 6.08126 137.548 -0.497387 142.797 0.0296711C147.4 0.499232 150.816 4.45456 151.585 5.42243C151.968 4.85231 152.5 4.39758 153.123 4.10718C154.299 3.50346 155.476 3.44357 155.758 3.97542C156.041 4.50727 155.298 5.42962 154.122 6.03334C154.05 6.06928 153.981 6.10521 153.909 6.13636C155.684 6.64185 158.202 7.57379 160.047 9.19569C166.206 14.5765 155.924 28.3471 155.924 28.3471Z" fill="#2A2D34"/>
<path d="M154.366 25.5657C154.366 25.5657 156.367 23.376 158.199 24.8685C160.032 26.361 155.114 30.3164 155.114 30.3164L154.366 25.5657Z" fill="#FFCFC9"/>
</svg>
