<svg width="71" height="80" viewBox="0 0 71 80" fill="none" xmlns="http://www.w3.org/2000/svg">
<path d="M6.41714 72.0029L0 0H70.5371L64.1114 71.9914L35.2257 80L6.41714 72.0029Z" fill="#1572B6"/>
<path d="M35.2686 73.8801L58.6114 67.4087L64.1028 5.88867H35.2686V73.8801Z" fill="#33A9DC"/>
<path d="M35.2686 31.9745H46.9543L47.76 22.9316H35.2686V14.1002H57.4114L57.2 16.4688L55.0314 40.8059H35.2686V31.9745Z" fill="white"/>
<path d="M35.3228 54.9083L35.2828 54.9197L25.4485 52.2626L24.8199 45.2197H15.9542L17.1914 59.0854L35.2799 64.1083L35.3228 64.0969V54.9083Z" fill="#EBEBEB"/>
<path d="M46.2031 40.431L45.1402 52.2568L35.2916 54.9139V64.1025L53.3945 59.0853L53.5288 57.5939L55.0631 40.431H46.2031Z" fill="white"/>
<path d="M35.3002 14.1002V22.9316H13.9688L13.7917 20.9459L13.3888 16.4688L13.1774 14.1002H35.3002Z" fill="#EBEBEB"/>
<path d="M35.2684 31.974V40.8054H25.557L25.3799 38.8197L24.9799 34.3426L24.7684 31.974H35.2684Z" fill="#EBEBEB"/>
</svg>
