<svg width="54" height="80" viewBox="0 0 54 80" fill="none" xmlns="http://www.w3.org/2000/svg">
<path d="M40 53.3333C47.3638 53.3333 53.3333 47.3638 53.3333 40C53.3333 32.6362 47.3638 26.6666 40 26.6666C32.6362 26.6666 26.6666 32.6362 26.6666 40C26.6666 47.3638 32.6362 53.3333 40 53.3333Z" fill="#19BCFE"/>
<path fill-rule="evenodd" clip-rule="evenodd" d="M13.3333 80C16.8696 80 20.2609 78.5953 22.7614 76.0948C25.2619 73.5943 26.6667 70.2029 26.6667 66.6667V53.3334H13.3333C9.79711 53.3334 6.40573 54.7381 3.90524 57.2386C1.40476 59.7391 0 63.1305 0 66.6667C0 70.2029 1.40476 73.5943 3.90524 76.0948C6.40573 78.5953 9.79711 80 13.3333 80Z" fill="#09CF83"/>
<path fill-rule="evenodd" clip-rule="evenodd" d="M13.3333 53.3333H26.6667V26.6666H13.3333C9.79711 26.6666 6.40573 28.0714 3.90524 30.5719C1.40476 33.0724 0 36.4637 0 40C0 43.5362 1.40476 46.9276 3.90524 49.428C6.40573 51.9285 9.79711 53.3333 13.3333 53.3333Z" fill="#A259FF"/>
<path fill-rule="evenodd" clip-rule="evenodd" d="M13.3333 26.6667H26.6667V0H13.3333C9.79711 0 6.40573 1.40476 3.90524 3.90524C1.40476 6.40573 0 9.79711 0 13.3333C0 16.8696 1.40476 20.2609 3.90524 22.7614C6.40573 25.2619 9.79711 26.6667 13.3333 26.6667Z" fill="#F24E1E"/>
<path fill-rule="evenodd" clip-rule="evenodd" d="M40 26.6667H26.6666V0H40C43.5362 0 46.9276 1.40476 49.428 3.90524C51.9285 6.40573 53.3333 9.79711 53.3333 13.3333C53.3333 16.8696 51.9285 20.2609 49.428 22.7614C46.9276 25.2619 43.5362 26.6667 40 26.6667Z" fill="#FF7262"/>
</svg>
