<svg width="57" height="80" viewBox="0 0 57 80" fill="none" xmlns="http://www.w3.org/2000/svg">
<path d="M56.6772 15.7219L51.5138 73.5656L28.304 80L5.15807 73.5744L0 15.7219H56.6772Z" fill="#E44D26"/>
<path d="M28.3386 75.0817L47.0934 69.8823L51.5056 20.4521H28.3386V75.0817Z" fill="#F16529"/>
<path d="M18.3011 34.6431H28.3386V27.5477H10.5468L10.7165 29.4513L12.4605 49.0043H28.3386V41.9089H18.9496L18.3011 34.6431Z" fill="#EBEBEB"/>
<path d="M19.9003 52.552H12.7776L13.7716 63.6928L28.306 67.7274L28.3387 67.7185V60.3363L28.3076 60.3445L20.4055 58.2108L19.9003 52.552Z" fill="#EBEBEB"/>
<path d="M5.27319 0H8.87898V3.56246H12.1775V0H15.7835V10.788H12.1777V7.17558H8.8792V10.788H5.27342V0H5.27319Z" fill="black"/>
<path d="M20.525 3.57757H17.3511V0H27.3073V3.57757H24.1314V10.788H20.5256V3.57757H20.5254H20.525Z" fill="black"/>
<path d="M28.8873 0H32.6471L34.9598 3.79063L37.2704 0H41.0317V10.788H37.4406V5.44089L34.9598 9.27662H34.8976L32.4154 5.44089V10.788H28.8873V0Z" fill="black"/>
<path d="M42.8262 0H46.433V7.22223H51.5038V10.788H42.8259V0H42.8262Z" fill="black"/>
<path d="M28.3142 49.0042H37.0514L36.2276 58.2064L28.314 60.3423V67.7241L42.86 63.6928L42.9666 62.494L44.6342 43.8141L44.8073 41.9088H28.3142V49.0042Z" fill="white"/>
<path d="M28.3142 34.6258V34.6431H45.4529L45.5951 33.0484L45.9186 29.4513L46.0881 27.5477H28.3142V34.626V34.6258Z" fill="white"/>
</svg>
