<svg width="80" height="80" viewBox="0 0 80 80" fill="none" xmlns="http://www.w3.org/2000/svg">
<path d="M0 0H80V80H0V0Z" fill="#F7DF1E"/>
<path d="M21.0349 66.8538L27.1567 63.1488C28.338 65.2429 29.4124 67.0148 31.9895 67.0148C34.4599 67.0148 36.0177 66.0485 36.0177 62.2898V36.7279H43.5355V62.396C43.5355 70.1826 38.9711 73.727 32.3117 73.727C26.2977 73.727 22.8067 70.6123 21.0345 66.8532" fill="black"/>
<path d="M47.6193 66.0479L53.7406 62.5039C55.3521 65.1354 57.4465 67.0685 61.1515 67.0685C64.2668 67.0685 66.2531 65.511 66.2531 63.3629C66.2531 60.7854 64.2125 59.8723 60.7756 58.3692L58.8965 57.5629C53.4725 55.2545 49.8746 52.3545 49.8746 46.2326C49.8746 40.5939 54.1706 36.2976 60.8834 36.2976C65.6628 36.2976 69.0996 37.9626 71.5696 42.3123L65.7159 46.0717C64.4268 43.7626 63.0312 42.8498 60.8831 42.8498C58.6812 42.8498 57.285 44.246 57.285 46.0717C57.285 48.327 58.6812 49.2404 61.9031 50.6367L63.7825 51.442C70.1731 54.181 73.7709 56.9732 73.7709 63.2557C73.7709 70.0226 68.4546 73.7276 61.3125 73.7276C54.3315 73.7276 49.8206 70.3982 47.619 66.0482" fill="black"/>
</svg>
