<svg width="20" height="20" viewBox="0 0 20 20" fill="none" xmlns="http://www.w3.org/2000/svg">
<path d="M19.1429 8H0.857143C0.0685713 8 0 8.894 0 10C0 11.106 0.0685713 12 0.857143 12H19.1429C19.9314 12 20 11.106 20 10C20 8.894 19.9314 8 19.1429 8ZM19.1429 16H0.857143C0.0685713 16 0 16.894 0 18C0 19.106 0.0685713 20 0.857143 20H19.1429C19.9314 20 20 19.106 20 18C20 16.894 19.9314 16 19.1429 16ZM0.857143 4H19.1429C19.9314 4 20 3.106 20 2C20 0.894 19.9314 0 19.1429 0H0.857143C0.0685713 0 0 0.894 0 2C0 3.106 0.0685713 4 0.857143 4Z" fill="#2A2D34"/>
</svg>
