<svg width="90" height="80" viewBox="0 0 90 80" fill="none" xmlns="http://www.w3.org/2000/svg">
<path d="M73.9293 25.9296C72.9724 25.6013 72.0073 25.2972 71.0351 25.0175C71.1984 24.3501 71.3488 23.6908 71.4822 23.0432C73.6732 12.4074 72.2409 3.83895 67.3485 1.01782C62.6578 -1.6867 54.9864 1.13338 47.2388 7.87606C46.4753 8.54177 45.7287 9.22667 44.9997 9.93009C44.5117 9.46234 44.0151 9.00366 43.5101 8.5543C35.3902 1.34482 27.2514 -1.69372 22.3643 1.13549C17.6777 3.84844 16.29 11.9033 18.2625 21.9831C18.4588 22.9814 18.6804 23.9746 18.9271 24.9616C17.775 25.289 16.6634 25.6374 15.5995 26.0083C6.07955 29.3275 0 34.5289 0 39.9243C0 45.4966 6.52668 51.0859 16.4421 54.475C17.2459 54.7486 18.0565 55.0021 18.873 55.2354C18.6078 56.2985 18.3724 57.3687 18.167 58.445C16.2865 68.3498 17.755 76.2144 22.4289 78.9101C27.2563 81.694 35.3586 78.8328 43.2477 71.9363C43.8875 71.3756 44.5131 70.7991 45.124 70.2072C45.9135 70.9689 46.724 71.7084 47.5546 72.4249C55.1968 79.0007 62.7442 81.6561 67.4135 78.953C72.2363 76.161 73.8039 67.7123 71.7688 57.4334C71.6085 56.6281 71.4287 55.8268 71.2297 55.0303C71.7987 54.8617 72.3572 54.6882 72.9016 54.5076C83.2097 51.0925 89.9165 45.5711 89.9165 39.9243C89.9165 34.5093 83.6406 29.2727 73.9293 25.9296ZM71.6937 50.8618C71.2019 51.0244 70.6976 51.1814 70.1833 51.3342C69.0453 47.7316 67.5097 43.901 65.6303 39.9429C67.4237 36.0793 68.9003 32.2975 70.0063 28.7184C70.9262 28.9847 71.8187 29.2653 72.6792 29.5614C81 32.4261 86.0754 36.6609 86.0754 39.9243C86.0754 43.4001 80.594 47.9124 71.6937 50.8618ZM68.0008 58.1794C68.9006 62.7244 69.0288 66.8339 68.4328 70.0467C67.8975 72.9335 66.8206 74.8579 65.4887 75.6289C62.6553 77.2691 56.5954 75.1371 50.06 69.5131C49.2874 68.847 48.5334 68.1594 47.7991 67.4514C50.3329 64.6805 52.8649 61.4593 55.3362 57.8816C59.6831 57.4959 63.7898 56.8651 67.514 56.0042C67.6973 56.7443 67.8603 57.4699 68.0008 58.1794ZM30.6545 75.3454C27.8861 76.3229 25.681 76.351 24.3481 75.5825C21.5118 73.9468 20.3327 67.6319 21.941 59.1615C22.1322 58.1606 22.3511 57.1651 22.5975 56.1763C26.2806 56.9912 30.3574 57.5771 34.7145 57.9304C37.2026 61.4312 39.8077 64.6489 42.4332 67.4665C41.8753 68.0064 41.3041 68.5325 40.7202 69.0442C37.2314 72.0937 33.7356 74.2573 30.6545 75.3454ZM17.6848 50.8404C13.3003 49.3416 9.67937 47.394 7.19754 45.2687C4.96719 43.359 3.84147 41.4627 3.84147 39.9243C3.84147 36.6501 8.7226 32.4739 16.8639 29.6355C17.8519 29.2913 18.886 28.9664 19.959 28.6615C21.0844 32.3214 22.5603 36.1481 24.3414 40.0177C22.5371 43.9445 21.0401 47.8324 19.9039 51.5355C19.1586 51.322 18.4186 51.0902 17.6848 50.8404ZM22.0324 21.2452C20.3426 12.6093 21.4648 6.09494 24.2891 4.45994C27.297 2.71851 33.9488 5.2014 40.9598 11.4267C41.417 11.8336 41.8667 12.2487 42.3089 12.6718C39.6964 15.4772 37.1152 18.671 34.6491 22.151C30.4202 22.543 26.3722 23.1724 22.6505 24.0157C22.4212 23.0977 22.2151 22.174 22.0324 21.2455V21.2452ZM60.8183 30.8227C59.9393 29.3043 59.0276 27.805 58.084 26.3258C60.9529 26.6886 63.7016 27.1702 66.2829 27.7589C65.508 30.2428 64.5422 32.8395 63.4052 35.5019C62.5741 33.9251 61.7117 32.365 60.8183 30.8227ZM45.0015 15.4171C46.7731 17.3366 48.5475 19.4795 50.2928 21.8047C46.7524 21.6375 43.206 21.6368 39.6655 21.8026C41.4125 19.4988 43.2021 17.3587 45.0015 15.4171ZM29.0831 30.849C28.2009 32.379 27.3545 33.9293 26.5447 35.4987C25.4264 32.8458 24.4692 30.2372 23.6877 27.7181C26.2532 27.1442 28.9889 26.6749 31.8396 26.3188C30.8854 27.807 29.9663 29.3173 29.0831 30.8487V30.849ZM31.9214 53.803C28.9763 53.4743 26.1994 53.0293 23.6347 52.4708C24.4285 49.9068 25.4067 47.2426 26.5493 44.5329C27.3623 46.1034 28.2122 47.6547 29.0982 49.1853C30.0093 50.7589 30.9527 52.3001 31.9214 53.803ZM45.1075 64.7019C43.2867 62.7378 41.4708 60.5647 39.6974 58.2276C41.4192 58.295 43.1743 58.3294 44.9583 58.3294C46.791 58.3294 48.6027 58.2883 50.3859 58.2089C48.635 60.5882 46.8672 62.7645 45.1075 64.7019ZM63.4414 44.3945C64.6433 47.1341 65.6563 49.7842 66.4606 52.3043C63.8537 52.8993 61.0389 53.3784 58.0731 53.7342C59.0234 52.2276 59.9437 50.7022 60.8334 49.159C61.738 47.5904 62.6075 46.0018 63.4414 44.3945ZM57.5062 47.2398C56.1442 49.6059 54.7055 51.927 53.1926 54.1996C50.4522 54.3937 47.7056 54.4901 44.9583 54.4887C42.16 54.4887 39.4382 54.4015 36.8173 54.2315C35.2649 51.9642 33.7989 49.639 32.4223 47.2609H32.4226C31.0525 44.8954 29.7728 42.4786 28.5861 40.0159C29.7697 37.5527 31.0456 35.1348 32.411 32.7675L32.4107 32.7678C33.7756 30.3999 35.2299 28.0846 36.7706 25.8271C39.4446 25.6247 42.1867 25.5194 44.9579 25.5194H44.9583C47.7422 25.5194 50.4878 25.6258 53.161 25.8295C54.6861 28.0837 56.1312 30.391 57.4935 32.7471C58.8635 35.1092 60.1563 37.5153 61.3698 39.9615C60.1687 42.4327 58.88 44.8604 57.5062 47.2398ZM65.4301 4.34544C68.4409 6.08195 69.6119 13.0845 67.7201 22.2676C67.5993 22.8535 67.4637 23.4502 67.3162 24.0554C63.5854 23.1942 59.5346 22.5539 55.2934 22.1559C52.8228 18.6376 50.2626 15.4389 47.6926 12.6697C48.3662 12.0205 49.0558 11.3881 49.7607 10.7731C56.3991 4.99628 62.6033 2.71535 65.4301 4.34544ZM44.9583 31.895C49.3926 31.895 52.9875 35.4899 52.9875 39.9243C52.9875 44.3586 49.3926 47.9535 44.9583 47.9535C40.5239 47.9535 36.929 44.3586 36.929 39.9243C36.929 35.4899 40.5239 31.895 44.9583 31.895Z" fill="#00D8FF"/>
</svg>
